# xmcd
#
# Track frame offsets:
#	150
#	21629
#	36792
#	56476
#	73341
#	87045
#	96998
#	107911
#	121869
#	134929
#	149885
#	158893
#
# Disc length: 2364 seconds
#
# Revision: 1
# Processed by: cddbd v1.5.2PL0 Copyright (c) Steve Scherf et al.
# Submitted via: EZCDAudioConverter 7.0.0.1
#
DISCID=bc093a0c
DTITLE=Dažādi Izpildītāji - Līksmojiet Visi !
DYEAR=2002
DGENRE=Pop
TTITLE0=Visi - Lūgšana
TTITLE1=Ingus Ulmanis - Vējš Klajumā
TTITLE2=Marts Kristians Kalniņš and Rudīte Būmane - Zīmējums
TTITLE3=Kristīne Zadovska - Pretim Mūžībai
TTITLE4=Marts Kristians Kalniņš and Rudīte Būmane - Lāču Bērns
TTITLE5=Visi - Līksmojiet Visi
TTITLE6=Ingus Ulmanis and Marts Kristians Kalniņš - Zvanu Skaņas
TTITLE7=Rudīte Būmane - Bērna Balss
TTITLE8=Ingus Ulmanis and Marts Kristians Kalniņš - Klusā Vietā
TTITLE9=Rudīte Būmane and Kristīne Zadovska - Sniegotā Mežā
TTITLE10=Kristīne Zadovska and Ingus Ulmanis - Lūk Tādiem Jābūt Ziemassvētkiem
TTITLE11=Ingus Ulmanis and Rudīte Būmane - Noskaņa
EXTD=
EXTT0=
EXTT1=
EXTT2=
EXTT3=
EXTT4=
EXTT5=
EXTT6=
EXTT7=
EXTT8=
EXTT9=
EXTT10=
EXTT11=
PLAYORDER=
